<?xml version="1.0" encoding="UTF-8" standalone="no"?>
<!DOCTYPE svg PUBLIC "-//W3C//DTD SVG 1.1//EN"
 "http://www.w3.org/Graphics/SVG/1.1/DTD/svg11.dtd">
<!-- Generated by graphviz version 2.40.1 (20161225.0304)
 -->
<!-- Title: dependencies Pages: 1 -->
<svg width="620pt" height="211pt"
 viewBox="0.00 0.00 620.00 211.00" xmlns="http://www.w3.org/2000/svg" xmlns:xlink="http://www.w3.org/1999/xlink">
<g id="graph0" class="graph" transform="scale(1 1) rotate(0) translate(4 207)">
<title>dependencies</title>
<polygon fill="#ffffff" stroke="transparent" points="-4,4 -4,-207 616,-207 616,4 -4,4"/>
<text text-anchor="start" x="285.0091" y="-42.4" font-family="sans-serif" font-weight="bold" font-size="14.00" fill="#000000">Legend</text>
<polygon fill="#ffffb3" stroke="transparent" points="72,-10 72,-30 92,-30 92,-10 72,-10"/>
<text text-anchor="start" x="95.629" y="-15.4" font-family="sans-serif" font-size="14.00" fill="#000000"> &#160;Declarations</text>
<polygon fill="#8dd3c7" stroke="transparent" points="185,-10 185,-30 205,-30 205,-10 185,-10"/>
<text text-anchor="start" x="208.7251" y="-15.4" font-family="sans-serif" font-size="14.00" fill="#000000"> &#160;Module</text>
<polygon fill="#80b1d3" stroke="transparent" points="271,-10 271,-30 291,-30 291,-10 271,-10"/>
<text text-anchor="start" x="294.7812" y="-15.4" font-family="sans-serif" font-size="14.00" fill="#000000"> &#160;Bootstrap</text>
<polygon fill="#fdb462" stroke="transparent" points="368,-10 368,-30 388,-30 388,-10 368,-10"/>
<text text-anchor="start" x="391.6732" y="-15.4" font-family="sans-serif" font-size="14.00" fill="#000000"> &#160;Providers</text>
<polygon fill="#fb8072" stroke="transparent" points="464,-10 464,-30 484,-30 484,-10 464,-10"/>
<text text-anchor="start" x="487.7258" y="-15.4" font-family="sans-serif" font-size="14.00" fill="#000000"> &#160;Exports</text>
<g id="clust1" class="cluster">
<title>cluster_SharedModule</title>
<polygon fill="none" stroke="#000000" stroke-dasharray="1,5" points="8,-70 8,-195 604,-195 604,-70 8,-70"/>
</g>
<g id="clust2" class="cluster">
<title>cluster_SharedModule_declarations</title>
<polygon fill="none" stroke="#000000" points="470,-78 470,-130 596,-130 596,-78 470,-78"/>
</g>
<g id="clust7" class="cluster">
<title>cluster_SharedModule_providers</title>
<polygon fill="none" stroke="#000000" points="16,-78 16,-130 462,-130 462,-78 16,-78"/>
</g>
<!-- AlertComponent -->
<g id="node1" class="node">
<title>AlertComponent</title>
<polygon fill="#ffffb3" stroke="#000000" points="588.0954,-122 477.9046,-122 477.9046,-86 588.0954,-86 588.0954,-122"/>
<text text-anchor="middle" x="533" y="-99.8" font-family="Times,serif" font-size="14.00" fill="#000000">AlertComponent</text>
</g>
<!-- SharedModule -->
<g id="node2" class="node">
<title>SharedModule</title>
<polygon fill="#8dd3c7" stroke="#000000" points="374.4231,-187 371.4231,-191 350.4231,-191 347.4231,-187 275.5769,-187 275.5769,-151 374.4231,-151 374.4231,-187"/>
<text text-anchor="middle" x="325" y="-164.8" font-family="Times,serif" font-size="14.00" fill="#000000">SharedModule</text>
</g>
<!-- AlertComponent&#45;&gt;SharedModule -->
<g id="edge1" class="edge">
<title>AlertComponent&#45;&gt;SharedModule</title>
<path fill="none" stroke="#000000" d="M533,-122.1061C533,-141.3391 533,-169 533,-169 533,-169 384.2931,-169 384.2931,-169"/>
<polygon fill="#000000" stroke="#000000" points="384.2931,-165.5001 374.2931,-169 384.2931,-172.5001 384.2931,-165.5001"/>
</g>
<!-- AlertService -->
<g id="node3" class="node">
<title>AlertService</title>
<ellipse fill="#fdb462" stroke="#000000" cx="394" cy="-104" rx="59.6646" ry="18"/>
<text text-anchor="middle" x="394" y="-99.8" font-family="Times,serif" font-size="14.00" fill="#000000">AlertService</text>
</g>
<!-- AlertService&#45;&gt;SharedModule -->
<g id="edge2" class="edge">
<title>AlertService&#45;&gt;SharedModule</title>
<path fill="none" stroke="#000000" d="M354.1895,-117.468C354.1895,-117.468 354.1895,-140.8642 354.1895,-140.8642"/>
<polygon fill="#000000" stroke="#000000" points="350.6896,-140.8641 354.1895,-150.8642 357.6896,-140.8642 350.6896,-140.8641"/>
</g>
<!-- AuthService -->
<g id="node4" class="node">
<title>AuthService</title>
<ellipse fill="#fdb462" stroke="#000000" cx="257" cy="-104" rx="59.1083" ry="18"/>
<text text-anchor="middle" x="257" y="-99.8" font-family="Times,serif" font-size="14.00" fill="#000000">AuthService</text>
</g>
<!-- AuthService&#45;&gt;SharedModule -->
<g id="edge3" class="edge">
<title>AuthService&#45;&gt;SharedModule</title>
<path fill="none" stroke="#000000" d="M296.0464,-117.7848C296.0464,-117.7848 296.0464,-140.5475 296.0464,-140.5475"/>
<polygon fill="#000000" stroke="#000000" points="292.5465,-140.5474 296.0464,-150.5475 299.5465,-140.5475 292.5465,-140.5474"/>
</g>
<!-- CustomerService -->
<g id="node5" class="node">
<title>CustomerService</title>
<ellipse fill="#fdb462" stroke="#000000" cx="102" cy="-104" rx="77.5839" ry="18"/>
<text text-anchor="middle" x="102" y="-99.8" font-family="Times,serif" font-size="14.00" fill="#000000">CustomerService</text>
</g>
<!-- CustomerService&#45;&gt;SharedModule -->
<g id="edge4" class="edge">
<title>CustomerService&#45;&gt;SharedModule</title>
<path fill="none" stroke="#000000" d="M102,-122.1061C102,-141.3391 102,-169 102,-169 102,-169 265.7856,-169 265.7856,-169"/>
<polygon fill="#000000" stroke="#000000" points="265.7857,-172.5001 275.7856,-169 265.7856,-165.5001 265.7857,-172.5001"/>
</g>
</g>
</svg>
