<?xml version="1.0" encoding="UTF-8" standalone="no"?>
<!DOCTYPE svg PUBLIC "-//W3C//DTD SVG 1.1//EN"
 "http://www.w3.org/Graphics/SVG/1.1/DTD/svg11.dtd">
<!-- Generated by graphviz version 2.40.1 (20161225.0304)
 -->
<!-- Title: dependencies Pages: 1 -->
<svg width="803pt" height="284pt"
 viewBox="0.00 0.00 803.00 284.00" xmlns="http://www.w3.org/2000/svg" xmlns:xlink="http://www.w3.org/1999/xlink">
<g id="graph0" class="graph" transform="scale(1 1) rotate(0) translate(4 280)">
<title>dependencies</title>
<polygon fill="#ffffff" stroke="transparent" points="-4,4 -4,-280 799,-280 799,4 -4,4"/>
<text text-anchor="start" x="376.5091" y="-42.4" font-family="sans-serif" font-weight="bold" font-size="14.00" fill="#000000">Legend</text>
<polygon fill="#ffffb3" stroke="transparent" points="163.5,-10 163.5,-30 183.5,-30 183.5,-10 163.5,-10"/>
<text text-anchor="start" x="187.129" y="-15.4" font-family="sans-serif" font-size="14.00" fill="#000000"> &#160;Declarations</text>
<polygon fill="#8dd3c7" stroke="transparent" points="276.5,-10 276.5,-30 296.5,-30 296.5,-10 276.5,-10"/>
<text text-anchor="start" x="300.2251" y="-15.4" font-family="sans-serif" font-size="14.00" fill="#000000"> &#160;Module</text>
<polygon fill="#80b1d3" stroke="transparent" points="362.5,-10 362.5,-30 382.5,-30 382.5,-10 362.5,-10"/>
<text text-anchor="start" x="386.2812" y="-15.4" font-family="sans-serif" font-size="14.00" fill="#000000"> &#160;Bootstrap</text>
<polygon fill="#fdb462" stroke="transparent" points="459.5,-10 459.5,-30 479.5,-30 479.5,-10 459.5,-10"/>
<text text-anchor="start" x="483.1732" y="-15.4" font-family="sans-serif" font-size="14.00" fill="#000000"> &#160;Providers</text>
<polygon fill="#fb8072" stroke="transparent" points="555.5,-10 555.5,-30 575.5,-30 575.5,-10 555.5,-10"/>
<text text-anchor="start" x="579.2258" y="-15.4" font-family="sans-serif" font-size="14.00" fill="#000000"> &#160;Exports</text>
<g id="clust1" class="cluster">
<title>cluster_AppModule</title>
<polygon fill="none" stroke="#000000" stroke-dasharray="1,5" points="8,-70 8,-268 787,-268 787,-70 8,-70"/>
</g>
<g id="clust2" class="cluster">
<title>cluster_AppModule_declarations</title>
<polygon fill="none" stroke="#000000" points="657,-78 657,-130 779,-130 779,-78 657,-78"/>
</g>
<g id="clust4" class="cluster">
<title>cluster_AppModule_imports</title>
<polygon fill="none" stroke="#000000" points="174,-78 174,-130 649,-130 649,-78 174,-78"/>
</g>
<g id="clust6" class="cluster">
<title>cluster_AppModule_bootstrap</title>
<polygon fill="none" stroke="#000000" points="335,-208 335,-260 459,-260 459,-208 335,-208"/>
</g>
<g id="clust7" class="cluster">
<title>cluster_AppModule_providers</title>
<polygon fill="none" stroke="#000000" points="16,-78 16,-130 166,-130 166,-78 16,-78"/>
</g>
<!-- AppComponent -->
<g id="node1" class="node">
<title>AppComponent</title>
<polygon fill="#ffffb3" stroke="#000000" points="770.9399,-122 665.0601,-122 665.0601,-86 770.9399,-86 770.9399,-122"/>
<text text-anchor="middle" x="718" y="-99.8" font-family="Times,serif" font-size="14.00" fill="#000000">AppComponent</text>
</g>
<!-- AppModule -->
<g id="node2" class="node">
<title>AppModule</title>
<polygon fill="#8dd3c7" stroke="#000000" points="438.6571,-187 435.6571,-191 414.6571,-191 411.6571,-187 355.3429,-187 355.3429,-151 438.6571,-151 438.6571,-187"/>
<text text-anchor="middle" x="397" y="-164.8" font-family="Times,serif" font-size="14.00" fill="#000000">AppModule</text>
</g>
<!-- AppComponent&#45;&gt;AppModule -->
<g id="edge1" class="edge">
<title>AppComponent&#45;&gt;AppModule</title>
<path fill="none" stroke="#000000" d="M718,-122.2843C718,-143.3211 718,-175 718,-175 718,-175 448.9651,-175 448.9651,-175"/>
<polygon fill="#000000" stroke="#000000" points="448.9652,-171.5001 438.9651,-175 448.9651,-178.5001 448.9652,-171.5001"/>
</g>
<!-- AppComponent  -->
<g id="node7" class="node">
<title>AppComponent </title>
<polygon fill="#80b1d3" stroke="#000000" points="451.439,-252 342.561,-252 342.561,-216 451.439,-216 451.439,-252"/>
<text text-anchor="middle" x="397" y="-229.8" font-family="Times,serif" font-size="14.00" fill="#000000">AppComponent </text>
</g>
<!-- AppModule&#45;&gt;AppComponent  -->
<g id="edge6" class="edge">
<title>AppModule&#45;&gt;AppComponent </title>
<path fill="none" stroke="#000000" stroke-dasharray="1,5" d="M397,-187.1061C397,-187.1061 397,-205.991 397,-205.991"/>
<polygon fill="#000000" stroke="#000000" points="393.5001,-205.9909 397,-215.991 400.5001,-205.991 393.5001,-205.9909"/>
</g>
<!-- AppRoutingModule -->
<g id="node3" class="node">
<title>AppRoutingModule</title>
<polygon fill="#8dd3c7" stroke="#000000" points="641.2744,-122 638.2744,-126 617.2744,-126 614.2744,-122 512.7256,-122 512.7256,-86 641.2744,-86 641.2744,-122"/>
<text text-anchor="middle" x="577" y="-99.8" font-family="Times,serif" font-size="14.00" fill="#000000">AppRoutingModule</text>
</g>
<!-- AppRoutingModule&#45;&gt;AppModule -->
<g id="edge2" class="edge">
<title>AppRoutingModule&#45;&gt;AppModule</title>
<path fill="none" stroke="#000000" d="M577,-122.0225C577,-139.3734 577,-163 577,-163 577,-163 448.748,-163 448.748,-163"/>
<polygon fill="#000000" stroke="#000000" points="448.7481,-159.5001 438.748,-163 448.748,-166.5001 448.7481,-159.5001"/>
</g>
<!-- CoreModule -->
<g id="node4" class="node">
<title>CoreModule</title>
<polygon fill="#8dd3c7" stroke="#000000" points="494.2619,-122 491.2619,-126 470.2619,-126 467.2619,-122 407.7381,-122 407.7381,-86 494.2619,-86 494.2619,-122"/>
<text text-anchor="middle" x="451" y="-99.8" font-family="Times,serif" font-size="14.00" fill="#000000">CoreModule</text>
</g>
<!-- CoreModule&#45;&gt;AppModule -->
<g id="edge3" class="edge">
<title>CoreModule&#45;&gt;AppModule</title>
<path fill="none" stroke="#000000" d="M423.2237,-122.1061C423.2237,-122.1061 423.2237,-140.991 423.2237,-140.991"/>
<polygon fill="#000000" stroke="#000000" points="419.7238,-140.9909 423.2237,-150.991 426.7238,-140.991 419.7238,-140.9909"/>
</g>
<!-- PagesModule -->
<g id="node5" class="node">
<title>PagesModule</title>
<polygon fill="#8dd3c7" stroke="#000000" points="390.2064,-122 387.2064,-126 366.2064,-126 363.2064,-122 297.7936,-122 297.7936,-86 390.2064,-86 390.2064,-122"/>
<text text-anchor="middle" x="344" y="-99.8" font-family="Times,serif" font-size="14.00" fill="#000000">PagesModule</text>
</g>
<!-- PagesModule&#45;&gt;AppModule -->
<g id="edge4" class="edge">
<title>PagesModule&#45;&gt;AppModule</title>
<path fill="none" stroke="#000000" d="M372.6375,-122.1061C372.6375,-122.1061 372.6375,-140.991 372.6375,-140.991"/>
<polygon fill="#000000" stroke="#000000" points="369.1375,-140.9909 372.6375,-150.991 376.1375,-140.991 369.1375,-140.9909"/>
</g>
<!-- SharedModule -->
<g id="node6" class="node">
<title>SharedModule</title>
<polygon fill="#8dd3c7" stroke="#000000" points="280.4231,-122 277.4231,-126 256.4231,-126 253.4231,-122 181.5769,-122 181.5769,-86 280.4231,-86 280.4231,-122"/>
<text text-anchor="middle" x="231" y="-99.8" font-family="Times,serif" font-size="14.00" fill="#000000">SharedModule</text>
</g>
<!-- SharedModule&#45;&gt;AppModule -->
<g id="edge5" class="edge">
<title>SharedModule&#45;&gt;AppModule</title>
<path fill="none" stroke="#000000" d="M231,-122.0225C231,-139.3734 231,-163 231,-163 231,-163 345.1112,-163 345.1112,-163"/>
<polygon fill="#000000" stroke="#000000" points="345.1112,-166.5001 355.1112,-163 345.1112,-159.5001 345.1112,-166.5001"/>
</g>
<!-- JwtInterceptor -->
<g id="node8" class="node">
<title>JwtInterceptor</title>
<ellipse fill="#fdb462" stroke="#000000" cx="91" cy="-104" rx="66.6094" ry="18"/>
<text text-anchor="middle" x="91" y="-99.8" font-family="Times,serif" font-size="14.00" fill="#000000">JwtInterceptor</text>
</g>
<!-- JwtInterceptor&#45;&gt;AppModule -->
<g id="edge7" class="edge">
<title>JwtInterceptor&#45;&gt;AppModule</title>
<path fill="none" stroke="#000000" d="M91,-122.2843C91,-143.3211 91,-175 91,-175 91,-175 345.0936,-175 345.0936,-175"/>
<polygon fill="#000000" stroke="#000000" points="345.0937,-178.5001 355.0936,-175 345.0936,-171.5001 345.0937,-178.5001"/>
</g>
</g>
</svg>
