<?xml version="1.0" encoding="UTF-8" standalone="no"?>
<!DOCTYPE svg PUBLIC "-//W3C//DTD SVG 1.1//EN"
 "http://www.w3.org/Graphics/SVG/1.1/DTD/svg11.dtd">
<!-- Generated by graphviz version 2.40.1 (20161225.0304)
 -->
<!-- Title: dependencies Pages: 1 -->
<svg width="829pt" height="211pt"
 viewBox="0.00 0.00 829.00 211.00" xmlns="http://www.w3.org/2000/svg" xmlns:xlink="http://www.w3.org/1999/xlink">
<g id="graph0" class="graph" transform="scale(1 1) rotate(0) translate(4 207)">
<title>dependencies</title>
<polygon fill="#ffffff" stroke="transparent" points="-4,4 -4,-207 825,-207 825,4 -4,4"/>
<text text-anchor="start" x="389.5091" y="-42.4" font-family="sans-serif" font-weight="bold" font-size="14.00" fill="#000000">Legend</text>
<polygon fill="#ffffb3" stroke="transparent" points="176.5,-10 176.5,-30 196.5,-30 196.5,-10 176.5,-10"/>
<text text-anchor="start" x="200.129" y="-15.4" font-family="sans-serif" font-size="14.00" fill="#000000"> &#160;Declarations</text>
<polygon fill="#8dd3c7" stroke="transparent" points="289.5,-10 289.5,-30 309.5,-30 309.5,-10 289.5,-10"/>
<text text-anchor="start" x="313.2251" y="-15.4" font-family="sans-serif" font-size="14.00" fill="#000000"> &#160;Module</text>
<polygon fill="#80b1d3" stroke="transparent" points="375.5,-10 375.5,-30 395.5,-30 395.5,-10 375.5,-10"/>
<text text-anchor="start" x="399.2812" y="-15.4" font-family="sans-serif" font-size="14.00" fill="#000000"> &#160;Bootstrap</text>
<polygon fill="#fdb462" stroke="transparent" points="472.5,-10 472.5,-30 492.5,-30 492.5,-10 472.5,-10"/>
<text text-anchor="start" x="496.1732" y="-15.4" font-family="sans-serif" font-size="14.00" fill="#000000"> &#160;Providers</text>
<polygon fill="#fb8072" stroke="transparent" points="568.5,-10 568.5,-30 588.5,-30 588.5,-10 568.5,-10"/>
<text text-anchor="start" x="592.2258" y="-15.4" font-family="sans-serif" font-size="14.00" fill="#000000"> &#160;Exports</text>
<g id="clust1" class="cluster">
<title>cluster_PagesModule</title>
<polygon fill="none" stroke="#000000" stroke-dasharray="1,5" points="8,-70 8,-195 813,-195 813,-70 8,-70"/>
</g>
<g id="clust2" class="cluster">
<title>cluster_PagesModule_declarations</title>
<polygon fill="none" stroke="#000000" points="243,-78 243,-130 805,-130 805,-78 243,-78"/>
</g>
<g id="clust7" class="cluster">
<title>cluster_PagesModule_imports</title>
<polygon fill="none" stroke="#000000" points="16,-78 16,-130 235,-130 235,-78 16,-78"/>
</g>
<!-- CardComponent -->
<g id="node1" class="node">
<title>CardComponent</title>
<polygon fill="#ffffb3" stroke="#000000" points="797.0452,-122 688.9548,-122 688.9548,-86 797.0452,-86 797.0452,-122"/>
<text text-anchor="middle" x="743" y="-99.8" font-family="Times,serif" font-size="14.00" fill="#000000">CardComponent</text>
</g>
<!-- PagesModule -->
<g id="node5" class="node">
<title>PagesModule</title>
<polygon fill="#8dd3c7" stroke="#000000" points="430.2064,-187 427.2064,-191 406.2064,-191 403.2064,-187 337.7936,-187 337.7936,-151 430.2064,-151 430.2064,-187"/>
<text text-anchor="middle" x="384" y="-164.8" font-family="Times,serif" font-size="14.00" fill="#000000">PagesModule</text>
</g>
<!-- CardComponent&#45;&gt;PagesModule -->
<g id="edge1" class="edge">
<title>CardComponent&#45;&gt;PagesModule</title>
<path fill="none" stroke="#000000" d="M743,-122.2843C743,-143.3211 743,-175 743,-175 743,-175 440.198,-175 440.198,-175"/>
<polygon fill="#000000" stroke="#000000" points="440.1981,-171.5001 430.198,-175 440.198,-178.5001 440.1981,-171.5001"/>
</g>
<!-- DashboardComponent -->
<g id="node2" class="node">
<title>DashboardComponent</title>
<polygon fill="#ffffb3" stroke="#000000" points="670.9734,-122 529.0266,-122 529.0266,-86 670.9734,-86 670.9734,-122"/>
<text text-anchor="middle" x="600" y="-99.8" font-family="Times,serif" font-size="14.00" fill="#000000">DashboardComponent</text>
</g>
<!-- DashboardComponent&#45;&gt;PagesModule -->
<g id="edge2" class="edge">
<title>DashboardComponent&#45;&gt;PagesModule</title>
<path fill="none" stroke="#000000" d="M600,-122.0225C600,-139.3734 600,-163 600,-163 600,-163 440.3374,-163 440.3374,-163"/>
<polygon fill="#000000" stroke="#000000" points="440.3375,-159.5001 430.3374,-163 440.3374,-166.5001 440.3375,-159.5001"/>
</g>
<!-- LoginComponent -->
<g id="node3" class="node">
<title>LoginComponent</title>
<polygon fill="#ffffb3" stroke="#000000" points="511.2758,-122 396.7242,-122 396.7242,-86 511.2758,-86 511.2758,-122"/>
<text text-anchor="middle" x="454" y="-99.8" font-family="Times,serif" font-size="14.00" fill="#000000">LoginComponent</text>
</g>
<!-- LoginComponent&#45;&gt;PagesModule -->
<g id="edge3" class="edge">
<title>LoginComponent&#45;&gt;PagesModule</title>
<path fill="none" stroke="#000000" d="M413.3577,-122.1061C413.3577,-122.1061 413.3577,-140.991 413.3577,-140.991"/>
<polygon fill="#000000" stroke="#000000" points="409.8577,-140.9909 413.3577,-150.991 416.8577,-140.991 409.8577,-140.9909"/>
</g>
<!-- RegisterComponent -->
<g id="node4" class="node">
<title>RegisterComponent</title>
<polygon fill="#ffffb3" stroke="#000000" points="378.9846,-122 251.0154,-122 251.0154,-86 378.9846,-86 378.9846,-122"/>
<text text-anchor="middle" x="315" y="-99.8" font-family="Times,serif" font-size="14.00" fill="#000000">RegisterComponent</text>
</g>
<!-- RegisterComponent&#45;&gt;PagesModule -->
<g id="edge4" class="edge">
<title>RegisterComponent&#45;&gt;PagesModule</title>
<path fill="none" stroke="#000000" d="M358.4446,-122.1061C358.4446,-122.1061 358.4446,-140.991 358.4446,-140.991"/>
<polygon fill="#000000" stroke="#000000" points="354.9447,-140.9909 358.4446,-150.991 361.9447,-140.991 354.9447,-140.9909"/>
</g>
<!-- CoreModule -->
<g id="node6" class="node">
<title>CoreModule</title>
<polygon fill="#8dd3c7" stroke="#000000" points="227.2619,-122 224.2619,-126 203.2619,-126 200.2619,-122 140.7381,-122 140.7381,-86 227.2619,-86 227.2619,-122"/>
<text text-anchor="middle" x="184" y="-99.8" font-family="Times,serif" font-size="14.00" fill="#000000">CoreModule</text>
</g>
<!-- CoreModule&#45;&gt;PagesModule -->
<g id="edge5" class="edge">
<title>CoreModule&#45;&gt;PagesModule</title>
<path fill="none" stroke="#000000" d="M184,-122.0225C184,-139.3734 184,-163 184,-163 184,-163 327.8648,-163 327.8648,-163"/>
<polygon fill="#000000" stroke="#000000" points="327.8649,-166.5001 337.8648,-163 327.8648,-159.5001 327.8649,-166.5001"/>
</g>
<!-- SharedModule -->
<g id="node7" class="node">
<title>SharedModule</title>
<polygon fill="#8dd3c7" stroke="#000000" points="122.4231,-122 119.4231,-126 98.4231,-126 95.4231,-122 23.5769,-122 23.5769,-86 122.4231,-86 122.4231,-122"/>
<text text-anchor="middle" x="73" y="-99.8" font-family="Times,serif" font-size="14.00" fill="#000000">SharedModule</text>
</g>
<!-- SharedModule&#45;&gt;PagesModule -->
<g id="edge6" class="edge">
<title>SharedModule&#45;&gt;PagesModule</title>
<path fill="none" stroke="#000000" d="M73,-122.2843C73,-143.3211 73,-175 73,-175 73,-175 327.776,-175 327.776,-175"/>
<polygon fill="#000000" stroke="#000000" points="327.776,-178.5001 337.776,-175 327.7759,-171.5001 327.776,-178.5001"/>
</g>
</g>
</svg>
